<svg width="71" height="104" viewBox="0 0 71 104" fill="none" xmlns="http://www.w3.org/2000/svg">
<path d="M50.1648 36.4902L50.9782 31.8702L43.9891 30.6502C44.3004 29.0802 44.5715 27.5102 44.7623 25.9302C45.0535 23.5402 45.3146 21.0602 45.0335 18.6502C44.7523 16.2302 43.8485 14.0202 42.1716 12.2402C40.6653 10.6502 38.6368 9.67018 36.5481 9.11018C31.8385 7.85018 26.9682 9.41018 22.6201 11.1802C18.4728 12.8602 13.7632 15.3102 9.14394 14.4202C3.9021 13.4102 3.46026 6.45018 4.38411 2.25018C4.60503 1.24018 3.81168 0.210175 2.82758 0.0301749C1.76314 -0.159825 0.819241 0.570178 0.59832 1.58018C-0.425948 6.25018 0.156467 12.2202 3.66107 15.7902C7.34642 19.5402 13.482 18.6002 17.9506 17.1202C22.5096 15.6102 26.8276 13.0102 31.6778 12.5502C35.2025 12.2202 39.3799 13.3602 40.7355 17.0102C41.579 19.2802 41.328 21.8402 41.087 24.1902C40.8862 26.1402 40.5849 28.0702 40.2033 29.9902L33.8468 28.8802L33.0335 33.5002C17.328 34.6702 3.81169 46.2802 0.959812 62.4302C-2.41425 81.5202 10.3991 99.7202 29.5791 103.08C48.7489 106.44 67.0251 93.6802 70.3992 74.5802C73.251 58.4302 64.5247 42.9202 50.1648 36.4902Z" fill="black"/>
<path d="M10.7205 73.1502L10.7506 72.9802C11.2427 70.2002 13.4318 67.7602 17.8101 65.5402C21.1138 63.8502 22.0377 63.2902 22.3891 61.3202C22.7105 59.5102 21.9875 58.0402 19.8887 57.6702C17.7197 57.2902 16.5347 58.2802 15.7916 60.3502L13.0803 59.8802C13.954 56.7902 16.4042 54.7202 20.2904 55.4002C24.5682 56.1502 25.723 59.1302 25.251 61.7602C24.759 64.5402 23.3732 65.4702 19.477 67.4602C16.6351 68.9202 15.1088 70.1002 14.436 71.3302L24.0059 73.0102L23.2025 75.3402L10.7205 73.1502Z" fill="white"/>
<path d="M33.8569 77.2002L34.6803 72.5503L26.0142 71.0303L26.4561 68.5503L36.7891 58.6302L39.7716 59.1503L37.733 70.6702L40.103 71.0902L39.4 73.3703L37.3113 73.0103L36.4879 77.6603L33.8569 77.2002ZM35.8653 65.8102C36.1364 64.2702 36.4477 62.5803 36.7188 61.3903C35.7146 62.7103 31.4971 66.7803 29.077 69.1603L35.092 70.2103L35.8653 65.8102Z" fill="white"/>
<path d="M45.5054 59.1002L48.4176 59.6102L46.9917 67.6602L56.7724 69.3702L58.1983 61.3202L61.1105 61.8302L57.6662 81.3602L54.754 80.8502L56.3507 71.8202L46.5699 70.1102L44.9733 79.1402L42.0611 78.6302L45.5054 59.1002Z" fill="white"/>
</svg>
