<svg width="272" height="79" viewBox="0 0 272 79" fill="none" xmlns="http://www.w3.org/2000/svg">
<path d="M11.7753 48.3806C11.7753 40.421 11.6231 32.4615 11.8463 24.5123C11.9478 20.8792 10.9027 19.161 7.14849 19.6889C6.24545 19.8131 5.27139 19.8545 4.3785 19.6786C2.79565 19.3577 0.137275 20.8482 0.00537109 17.8465C-0.13668 14.7207 2.57243 16.0869 4.15528 15.7868C4.89597 15.6419 5.69754 15.7661 6.46868 15.7661C17.2645 15.7661 28.0502 15.7661 38.8461 15.7661C39.7694 15.7661 40.6927 15.7557 41.6262 15.7661C43.0264 15.7868 44.6702 15.6522 44.7107 17.6499C44.7615 19.5958 43.2091 19.7096 41.7581 19.7096C36.6747 19.7096 31.5711 19.8856 26.4978 19.6579C23.048 19.5026 21.9725 20.7447 22.0029 24.2328C22.1551 40.3072 22.0942 56.3815 22.0334 72.4455C22.0232 74.1741 22.9364 76.6375 20.4911 77.2896C18.0052 77.952 15.2454 78.159 12.8001 77.0412C11.3085 76.3581 11.8057 74.5674 11.7956 73.2115C11.755 64.9207 11.7753 56.6506 11.7753 48.3806Z" fill="white"/>
<path d="M22.9567 6.14006C22.8857 9.12101 20.2578 11.7397 17.3153 11.7604C13.9872 11.7811 11.684 9.27627 11.7855 5.75709C11.8768 2.61053 14.2713 0.136755 17.2747 0.085002C20.3288 0.0228988 23.0277 2.90034 22.9567 6.14006Z" fill="white"/>
<path d="M219.991 0.12644C222.954 0.250646 225.815 3.40756 225.622 6.33676C225.44 9.1314 222.457 11.9053 219.748 11.7915C216.572 11.6569 214.015 8.80018 214.238 5.62257C214.461 2.60022 217.17 0.00223364 219.991 0.12644Z" fill="white"/>
<path d="M72.9992 19.5543C72.6441 22.0592 71.7715 24.1086 68.9102 24.2535C66.0286 24.3984 64.0602 22.8872 63.9587 20.0305C63.8674 17.2462 65.6938 15.2899 68.4739 15.2175C71.0917 15.1347 72.4716 17.0392 72.9992 19.5543Z" fill="white"/>
<path d="M271.992 21.0759C271.982 15.9006 270.541 14.3066 265.498 14.2445C258.406 14.141 251.303 14.141 244.211 14.2445C239.107 14.317 237.869 15.7454 237.849 21.1173C237.808 32.8237 237.798 44.5302 237.737 56.247C237.727 58.2446 237.981 60.3354 236.449 62.2192C235.708 60.6045 235.089 59.0209 234.298 57.5408C233.496 56.04 232.471 54.6633 231.629 53.1729C230.422 51.0407 228.717 49.7572 226.333 50.7612C223.623 51.8894 225.44 54.1355 225.825 55.6259C226.637 58.7414 225.774 60.0456 222.639 59.9007C222.03 59.8697 221.401 59.9111 220.793 60.0353C211.326 61.888 213.122 61.4947 212.807 52.8313C212.706 50.047 213.873 49.3846 216.369 49.457C221.148 49.6019 225.937 49.5502 230.716 49.4777C234.734 49.4156 236.459 47.9355 236.54 43.9091C236.702 35.9496 236.621 27.99 236.58 20.0201C236.56 16.4181 234.896 14.6793 231.112 14.7724C224.019 14.9484 216.917 14.8242 209.824 14.8242C202.6 14.8242 201.89 15.5073 201.88 22.7837C201.859 37.7713 201.89 52.7588 201.839 67.7464C201.839 69.2472 202.397 70.924 201.139 72.4248C200.347 70.7688 200.703 69.1851 200.692 67.6636C200.652 59.0727 200.855 50.4817 200.621 41.9011C200.276 29.1182 191.479 23.3633 179.841 28.0625C177.092 29.17 174.697 30.8468 172.455 32.7927C171.694 33.4551 171.085 34.8628 169.847 34.1693C168.761 33.5586 169.35 32.1923 169.259 31.1573C169.177 30.2257 169.238 29.2838 169.218 28.3523C169.198 27.3379 168.883 26.6031 167.757 26.3236C164.398 25.4956 159.173 29.5012 159.163 33.0307C159.143 44.7372 159.173 56.454 159.132 68.1604C159.132 69.5474 159.569 71.0586 158.554 72.5387C157.56 70.686 157.935 68.9367 157.925 67.2599C157.884 58.669 158.006 50.0884 157.884 41.4975C157.742 31.4057 153.603 27.0481 143.659 26.3132C141.823 26.1787 139.935 26.1062 138.109 26.3443C129.231 27.5036 122.311 30.971 120.079 40.9075C118.79 46.652 116.538 52.1792 114.752 57.8099C114.346 59.083 114.163 60.4493 113.078 61.2152C111.941 60.9047 111.819 60.056 111.556 59.3625C108.603 51.4961 105.63 43.64 102.748 35.7529C102.18 34.19 101.622 32.8341 99.7045 32.7616C97.7361 32.6892 97.0868 34.1486 96.5287 35.6287C95.4227 38.5372 94.3979 41.4768 93.3123 44.3956C91.1612 50.1505 88.9899 55.8951 86.7881 61.7431C85.3574 60.9875 85.1849 60.056 84.8704 59.1762C81.4307 49.8296 77.7577 40.5659 74.6022 31.1262C73.3034 27.2551 71.264 26.0648 67.4793 26.3339C64.6282 26.541 63.5527 27.1206 64.7297 30.2464C70.3204 45.0994 75.7589 60.0042 81.2278 74.8986C81.7148 76.2235 81.9787 77.7347 83.8456 77.6001C85.4082 77.4863 85.6415 76.151 86.0677 74.9814C88.655 67.9741 91.2728 60.9772 93.8703 53.9802C94.4081 52.5311 94.682 50.7094 96.6099 50.668C98.6899 50.6266 99.2784 52.3862 99.8872 54.0527C102.383 60.9254 104.889 67.7982 107.487 74.6295C107.943 75.8198 107.974 77.5587 109.902 77.6415C112.043 77.7347 112.175 75.944 112.763 74.557C114.681 70.0856 115.736 65.2312 118.191 60.9358C119.135 61.6189 118.892 62.1985 118.8 62.8092C117.491 71.9901 122.595 77.7657 131.757 77.8382C136.871 77.8796 140.95 75.706 144.816 72.6836C145.699 71.9901 146.977 70.0028 147.992 72.4352C149.808 76.8238 153.319 76.9998 157.194 76.7824C159.66 76.6479 162.146 76.565 164.591 76.8031C168.092 77.155 169.472 76.12 169.34 72.2282C169.035 63.6579 169.634 55.036 169.106 46.4761C168.761 40.8454 171.176 37.8437 175.651 35.4838C184.732 30.6915 190.475 34.0554 190.526 44.3749C190.576 53.8974 190.607 63.4199 190.485 72.9424C190.455 75.6439 191.013 76.9377 194.036 76.8135C199.424 76.5961 204.832 76.6893 210.23 76.7824C212.249 76.8135 213.599 76.1821 214.928 74.526C217.85 70.9033 221.087 67.5497 224.831 64.7344C226.769 63.275 227.428 63.7511 227.581 66.0489C227.733 68.3778 228.068 70.6963 228.433 72.9941C228.656 74.3707 227.834 76.503 230.208 76.6479C232.258 76.7721 234.632 77.4966 236.002 75.0021C239.29 69.0195 243.46 63.5648 246.149 57.1992C247.214 54.6633 246.047 50.6473 249.578 49.7572C252.338 49.0637 255.412 49.6744 258.335 49.5605C260.374 49.4881 261.044 50.3989 260.993 52.3552C260.912 55.4707 260.973 58.5965 260.973 61.7224C260.973 68.6055 260.973 68.6055 254.144 69.2369C253.84 69.2679 253.505 69.1851 253.221 69.2679C250.623 70.0649 250.38 72.6111 250.227 74.5467C250.075 76.5443 252.297 75.737 253.474 75.7681C257.634 75.8819 261.805 75.8405 265.965 75.7991C270.936 75.7474 271.951 74.7537 271.961 69.7751C272.012 53.5455 272.002 37.3055 271.992 21.0759ZM140.25 70.8826C136.009 72.4973 132.396 71.4519 130.134 67.9534C127.729 64.2376 127.861 60.5217 131.027 57.282C135.004 53.2143 140.088 50.9164 145.354 49.0326C147.332 48.3185 147.839 49.4156 147.85 51.1131C147.86 53.2971 147.85 55.481 147.86 57.665C147.86 58.286 147.86 58.9174 147.86 59.5384C147.85 66.6803 146.673 68.4399 140.25 70.8826ZM144.643 45.617C136.435 47.7388 128.236 49.9228 122.027 56.3712C121.448 56.9715 120.657 57.3338 119.947 56.9301C119.094 56.4436 119.531 55.688 119.825 54.9325C121.885 49.5812 123.772 44.1576 125.913 38.8374C128.602 32.1509 133.787 29.1596 140.94 29.9359C145.323 30.4121 147.748 34.3039 147.839 41.3733C148.408 43.6814 147.149 44.9649 144.643 45.617ZM212.787 26.6031C213.031 16.6562 211.732 18.0432 220.985 17.9604C226.657 17.9086 226.698 17.9707 226.637 23.9223C226.556 31.4575 227.712 30.5466 220.011 30.6294C218.936 30.6294 217.85 30.5363 216.775 30.6501C213.771 30.9503 212.716 29.6668 212.787 26.6031ZM216.846 33.7242C217.901 33.8795 218.997 33.7449 220.072 33.7449C221.148 33.7449 222.233 33.8484 223.299 33.7242C225.967 33.4137 226.647 34.6144 226.698 37.202C226.87 45.8447 226.972 45.8447 218.286 45.8343C212.848 45.824 212.848 45.824 212.838 40.3072C212.838 39.5309 212.929 38.7339 212.828 37.9783C212.412 34.8317 213.477 33.2377 216.846 33.7242ZM254.682 17.8155C261.886 17.919 260.841 16.9046 260.871 24.8538C260.902 31.4264 261.602 30.5777 254.337 30.6191C248.005 30.6605 247.985 30.6191 248.016 23.4772C248.046 16.8736 247.498 17.9086 254.682 17.8155ZM256.873 46.6624C248.087 46.4243 248.076 46.7141 248.016 41.9839C247.904 33.8174 247.904 33.7449 252.145 33.7656C262.413 33.8174 260.719 32.8548 260.902 40.4003C260.607 42.9465 262.687 46.8176 256.873 46.6624Z" fill="white"/>
<path d="M72.9686 58.5862C72.9686 57.2717 72.8367 56.0399 71.3046 55.657C68.2099 54.8703 63.918 58.3481 63.7962 61.6396C63.6643 65.1588 64.1818 68.7193 63.4411 72.4352C62.5178 71.2449 62.8019 70.1167 62.8019 69.0506C62.7816 59.6937 62.8425 50.3368 62.7613 40.9799C62.7106 34.8628 60.1536 31.2297 54.3296 29.7496C47.7851 28.0728 41.2305 28.1763 34.9802 31.3125C32.4233 32.596 30.394 34.4694 28.8315 36.8397C27.9995 38.1025 26.9341 39.5826 27.9081 41.1455C28.7909 42.5636 30.4448 41.7769 31.7537 41.9839C34.5338 42.4187 35.8427 41.0213 36.8979 38.5062C38.7344 34.1382 42.5191 31.7059 46.1109 31.9957C50.6058 32.3579 52.4423 35.2561 53.4062 42.3048C54.015 46.7659 50.9406 46.9522 48.1707 47.7595C46.253 48.3185 44.3048 48.8153 42.4379 49.5191C37.2226 51.465 32.0175 53.4627 28.2328 57.8823C24.7627 61.9397 24.3772 66.6078 26.1021 71.4726C27.6139 75.7473 31.1347 77.7554 35.2846 78.3453C40.2158 79.0492 44.802 77.6518 48.7084 74.557C51.1436 72.6215 53.0714 70.9447 55.0398 75.0746C55.7501 76.5547 57.3228 77.5897 59.2303 77.5794C62.7714 77.5587 66.3125 77.5587 69.8638 77.5794C71.9438 77.5897 72.9788 76.6789 72.9686 74.4949C72.928 69.1955 72.9585 63.896 72.9686 58.5862ZM52.0162 68.0362C49.2766 70.2409 46.3341 72.311 42.4785 72.1868C36.5834 71.9901 32.7582 65.4796 35.934 60.47C39.4447 54.9324 45.2383 52.5932 51.1233 50.637C52.6351 50.1298 53.3961 51.1545 53.4062 52.6864C53.4164 54.8703 53.4062 57.0439 53.4062 59.704C52.767 62.1468 54.9282 65.6866 52.0162 68.0362Z" fill="white"/>
</svg>
