<svg width="32" height="37" viewBox="0 0 32 37" fill="none" xmlns="http://www.w3.org/2000/svg">
<path d="M15.4357 29.4916C14.8286 30.2287 13.7429 30.2287 13.0714 29.4916L8.5 24.8666C7.83571 24.2523 7.83571 23.1539 8.5 22.4746C9.17143 21.8025 10.2571 21.8025 10.8643 22.4746L14.2857 25.8783L21.0714 19.0059C21.7429 18.3338 22.8286 18.3338 23.4357 19.0059C24.1643 19.6852 24.1643 20.7836 23.4357 21.3979L15.4357 29.4916ZM9.14286 0C10.0929 0 10.8571 0.776855 10.8571 1.73438V4.625H21.1429V1.73438C21.1429 0.776855 21.9071 0 22.8571 0C23.8071 0 24.5714 0.776855 24.5714 1.73438V4.625H27.4286C29.95 4.625 32 6.69541 32 9.25V32.375C32 34.926 29.95 37 27.4286 37H4.57143C2.04643 37 0 34.926 0 32.375V9.25C0 6.69541 2.04643 4.625 4.57143 4.625H7.42857V1.73438C7.42857 0.776855 8.19286 0 9.14286 0ZM28.5714 13.875H3.42857V32.375C3.42857 33.0109 3.94 33.5312 4.57143 33.5312H27.4286C28.0571 33.5312 28.5714 33.0109 28.5714 32.375V13.875Z" fill="url(#paint0_linear_934_17587)"/>
<defs>
<linearGradient id="paint0_linear_934_17587" x1="16" y1="0" x2="16" y2="37" gradientUnits="userSpaceOnUse">
<stop stop-color="#1A91FF"/>
<stop offset="1" stop-color="#232D4E"/>
</linearGradient>
</defs>
</svg>
