<svg width="32" height="36" viewBox="0 0 32 36" fill="none" xmlns="http://www.w3.org/2000/svg">
<path d="M10.8571 4.5H21.1429V1.6875C21.1429 0.755859 21.9071 0 22.8571 0C23.8071 0 24.5714 0.755859 24.5714 1.6875V4.5H27.4286C29.95 4.5 32 6.51445 32 9V31.5C32 33.982 29.95 36 27.4286 36H4.57143C2.04643 36 0 33.982 0 31.5V9C0 6.51445 2.04643 4.5 4.57143 4.5H7.42857V1.6875C7.42857 0.755859 8.19286 0 9.14286 0C10.0929 0 10.8571 0.755859 10.8571 1.6875V4.5ZM3.42857 17.4375H9.14286V13.5H3.42857V17.4375ZM3.42857 20.8125V25.3125H9.14286V20.8125H3.42857ZM12.5714 20.8125V25.3125H19.4286V20.8125H12.5714ZM22.8571 20.8125V25.3125H28.5714V20.8125H22.8571ZM28.5714 13.5H22.8571V17.4375H28.5714V13.5ZM28.5714 28.6875H22.8571V32.625H27.4286C28.0571 32.625 28.5714 32.1188 28.5714 31.5V28.6875ZM19.4286 28.6875H12.5714V32.625H19.4286V28.6875ZM9.14286 28.6875H3.42857V31.5C3.42857 32.1188 3.94 32.625 4.57143 32.625H9.14286V28.6875ZM19.4286 13.5H12.5714V17.4375H19.4286V13.5Z" fill="url(#paint0_linear_934_17589)"/>
<defs>
<linearGradient id="paint0_linear_934_17589" x1="16" y1="0" x2="16" y2="36" gradientUnits="userSpaceOnUse">
<stop stop-color="#1A91FF"/>
<stop offset="1" stop-color="#232D4E"/>
</linearGradient>
</defs>
</svg>
