<svg width="30" height="26" viewBox="0 0 30 26" fill="none" xmlns="http://www.w3.org/2000/svg">
<path d="M19.8786 10.6844C19.2631 11.2648 18.3192 11.2822 17.6334 10.7715L11.2905 6.06483L3.04777 12.5416C2.2388 13.2322 1.05816 13.1045 0.411157 12.2514C-0.236082 11.5027 -0.104887 10.3362 0.704089 9.69204L10.0829 2.26409C10.7512 1.73539 11.695 1.72088 12.3809 2.22869L18.7237 6.93536L26.9659 0.406954C27.7749 -0.233757 28.9532 -0.103757 29.5511 0.697132C30.2487 1.49802 30.1198 2.66685 29.258 3.30757L19.8786 10.6844ZM9.37948 13.0001C9.37948 11.9728 10.2178 11.1429 11.2554 11.1429C12.293 11.1429 13.1313 11.9728 13.1313 13.0001V24.1429C13.1313 25.1701 12.293 26 11.2554 26C10.2178 26 9.37948 25.1701 9.37948 24.1429V13.0001ZM1.87593 18.5715C1.87593 17.5442 2.71598 16.7143 3.75182 16.7143C4.78766 16.7143 5.62771 17.5442 5.62771 18.5715V24.1429C5.62771 25.1701 4.78766 26 3.75182 26C2.71598 26 1.87593 25.1701 1.87593 24.1429V18.5715ZM20.6348 16.7143V24.1429C20.6348 25.1701 19.7965 26 18.7589 26C17.7213 26 16.883 25.1701 16.883 24.1429V16.7143C16.883 15.6871 17.7213 14.8572 18.7589 14.8572C19.7965 14.8572 20.6348 15.6871 20.6348 16.7143ZM24.3866 13.0001C24.3866 11.9728 25.2249 11.1429 26.2625 11.1429C27.3001 11.1429 28.1383 11.9728 28.1383 13.0001V24.1429C28.1383 25.1701 27.3001 26 26.2625 26C25.2249 26 24.3866 25.1701 24.3866 24.1429V13.0001Z" fill="url(#paint0_linear_934_17596)"/>
<defs>
<linearGradient id="paint0_linear_934_17596" x1="15" y1="0" x2="15" y2="26" gradientUnits="userSpaceOnUse">
<stop stop-color="#1A91FF"/>
<stop offset="1" stop-color="#232D4E"/>
</linearGradient>
</defs>
</svg>
