<svg xmlns="http://www.w3.org/2000/svg" viewBox="0 0 78 78"><defs><style>.cls-1{fill:#232d4e;}.cls-2{fill:none;stroke:#fff;}.cls-3{fill:#fff;}</style></defs><g id="圖層_2" data-name="圖層 2"><g id="圖層_1-2" data-name="圖層 1"><circle class="cls-1" cx="39" cy="39" r="39"/><circle class="cls-2" cx="39" cy="39" r="38.5"/><path class="cls-3" d="M15.83,28.8a17.81,17.81,0,0,1,2.08,0c.19,0,.46.4.47.63,0,1.79,0,3.59,0,5.39v1a3,3,0,0,0,.39-.25,7,7,0,0,1,7.8-1.51,7.52,7.52,0,0,1,4.85,6.47,7.85,7.85,0,0,1-15.26,3.29,7.27,7.27,0,0,1-.38-2.16c0-4.12,0-8.23,0-12.34C15.78,29.21,15.81,29.08,15.83,28.8Zm13,12.61a5.23,5.23,0,1,0-10.46-.07,5.23,5.23,0,1,0,10.46.07Z"/><path class="cls-3" d="M33.92,41.41A7.85,7.85,0,1,1,41.8,49.2,7.83,7.83,0,0,1,33.92,41.41Zm13.08,0a5.25,5.25,0,1,0-10.5,0,5.25,5.25,0,0,0,10.5,0Z"/><path class="cls-3" d="M62,37c-.66.18-1.33.4-2,.53-.17,0-.47-.21-.57-.4a1.72,1.72,0,0,0-1.81-1,1.93,1.93,0,0,0-1.65,1.49,1.67,1.67,0,0,0,.87,1.87c1,.55,2,1,3,1.49a4.08,4.08,0,0,1,2.31,4.8,4.53,4.53,0,0,1-4.22,3.38,4.25,4.25,0,0,1-4.4-3.42l2.29-.65a7.64,7.64,0,0,0,.43.7,1.85,1.85,0,0,0,2,.75,1.78,1.78,0,0,0,1.42-1.32,1.56,1.56,0,0,0-.73-1.84c-1-.58-2-1-3.06-1.55a4,4,0,0,1-2.43-4.42A4.53,4.53,0,0,1,57,33.63,4.28,4.28,0,0,1,62,37Z"/></g></g></svg>