<svg width="36" height="29" viewBox="0 0 36 29" fill="none" xmlns="http://www.w3.org/2000/svg">
<path d="M17.9944 18.125C21.2237 18.125 23.7937 15.4878 23.7937 12.2344C23.7937 8.98094 21.1759 6.34375 17.9944 6.34375C14.7651 6.34375 12.195 8.98094 12.195 12.2344C12.1444 15.4855 14.7656 18.125 17.9944 18.125ZM17.9944 8.15625C20.2264 8.15625 22.0421 9.98574 22.0421 12.2344C22.0421 14.483 20.2219 16.3125 17.9944 16.3125C15.7669 16.3125 13.9444 14.483 13.9444 12.2344C13.9444 9.98574 15.7612 8.15625 17.9944 8.15625ZM20.8069 19.9375H15.1931C10.7775 19.9375 7.2 23.3189 7.2 27.4877C7.2 28.326 7.91437 29 8.7975 29H27.2025C28.0856 29 28.8 28.326 28.8 27.4877C28.8 23.3189 25.2225 19.9375 20.8069 19.9375ZM9.01125 27.1875C9.18118 24.1623 11.8907 21.75 15.1481 21.75H20.8069C24.1132 21.75 26.82 24.1623 26.9437 27.1875H9.01125ZM28.8 9.0625C31.2851 9.0625 33.3 7.03363 33.3 4.53125C33.3 2.02887 31.2862 0 28.8 0C26.3149 0 24.3 2.02887 24.3 4.53125C24.3 7.03363 26.3137 9.0625 28.8 9.0625ZM28.8 1.8125C30.2889 1.8125 31.5 3.03197 31.5 4.53125C31.5 6.03053 30.2906 7.25 28.8 7.25C27.3094 7.25 26.1 6.03053 26.1 4.53125C26.1 3.03197 27.3094 1.8125 28.8 1.8125ZM7.2 9.0625C9.68512 9.0625 11.7 7.03363 11.7 4.53125C11.7 2.02887 9.68625 0 7.2 0C4.71487 0 2.7 2.02887 2.7 4.53125C2.7 7.03363 4.71487 9.0625 7.2 9.0625ZM7.2 1.8125C8.68894 1.8125 9.9 3.03197 9.9 4.53125C9.9 6.03053 8.69062 7.25 7.2 7.25C5.70937 7.25 4.5 6.03223 4.5 4.53125C4.5 3.03027 5.70937 1.8125 7.2 1.8125ZM31.5619 10.875H27.9C27.2722 10.875 26.658 11.0166 26.0736 11.2963C25.6245 11.5114 25.4329 12.0519 25.6464 12.5033C25.8599 12.9547 26.399 13.1484 26.8451 12.9334C27.1856 12.7725 27.54 12.6875 27.9 12.6875H31.5608C32.9681 12.6875 34.2 13.9732 34.2 15.5592V16.3125C34.2 16.8134 34.6025 17.2188 35.1 17.2188C35.5975 17.2188 36 16.8109 36 16.3125V15.5592C36 12.9764 34.0087 10.875 31.5619 10.875ZM9.1575 12.9311C9.60401 13.1461 10.1436 12.9523 10.3562 12.5009C10.5698 12.0496 10.3782 11.5086 9.92903 11.2939C9.34313 11.0166 8.73 10.875 8.1 10.875H4.43925C1.99181 10.875 0 12.9764 0 15.5592V16.3125C0 16.8134 0.402525 17.2188 0.9 17.2188C1.39747 17.2188 1.8 16.8109 1.8 16.3125V15.5592C1.8 13.9732 2.98406 12.6875 4.43925 12.6875H8.1C8.46 12.6875 8.81437 12.7725 9.1575 12.9311Z" fill="url(#paint0_linear_934_17597)"/>
<defs>
<linearGradient id="paint0_linear_934_17597" x1="18" y1="0" x2="18" y2="29" gradientUnits="userSpaceOnUse">
<stop stop-color="#1A91FF"/>
<stop offset="1" stop-color="#232D4E"/>
</linearGradient>
</defs>
</svg>
